<?xml version="1.0" encoding="UTF-8"?>
<svg width="248px" height="90px" viewBox="0 0 248 90" version="1.1" xmlns="http://www.w3.org/2000/svg" xmlns:xlink="http://www.w3.org/1999/xlink">
    <title>Ω The Core/Brand/Logo/Default Bis</title>
    <g id="Symbols" stroke="none" stroke-width="1" fill="none" fill-rule="evenodd">
        <g id="Navigation/Header" transform="translate(-50.000000, -18.000000)">
            <g id="Group" transform="translate(50.000000, 15.536408)">
                <g id="Group-44" transform="translate(0.000000, 2.968750)">
                    <polygon id="Fill-1" fill="#CC0000" points="0 48.4212031 101.915107 48.4212031 101.915107 41.5663594 0 41.5663594"></polygon>
                    <path d="M94.9392831,77.5937462 C95.9879281,77.5937462 96.8947274,77.7966881 97.659681,78.2025719 C98.6458464,78.7212012 99.2917822,79.5865855 99.5974885,80.7987248 L99.6961801,81.2695312 L98.1992013,81.2695312 L98.0917616,80.879608 C97.8856069,80.2605648 97.5440093,79.7956657 97.0669686,79.484911 C96.4945199,79.1120052 95.7726266,78.9255524 94.9012887,78.9255524 C93.8678414,78.9255524 92.99777,79.3136787 92.2910745,80.0899315 C91.5843789,80.8661842 91.2310311,82.022953 91.2310311,83.5602379 C91.2310311,84.8895073 91.5223214,85.9714413 92.104902,86.8060398 C92.6874826,87.6406384 93.6373422,88.0579376 94.9544809,88.0579376 C95.9625985,88.0579376 96.7972085,87.7649403 97.4583108,87.1789455 C98.0367753,86.6662002 98.3679795,85.8766888 98.4519233,84.8104115 L98.4727609,84.3364906 L94.9772775,84.3364906 L94.9772775,83.0807877 L99.8785531,83.0807877 L99.8785531,89.0625 L98.9058969,89.0625 L98.5411508,87.6241493 L98.2411471,87.9413475 C97.8504635,88.3366783 97.4970651,88.6216087 97.1809518,88.7961388 C96.5173165,89.1715813 95.6738412,89.3593025 94.6505258,89.3593025 C93.3283212,89.3593025 92.1910226,88.9305878 91.23863,88.0731583 C90.2001168,86.9975662 89.6808602,85.5211639 89.6808602,83.6439514 C89.6808602,81.7718124 90.187452,80.2827263 91.2006356,79.176693 C92.1631601,78.1213951 93.4093759,77.5937462 94.9392831,77.5937462 Z M122.735975,80.7291985 C123.31349,80.7291985 123.873274,80.8649158 124.415327,81.1363506 C124.95738,81.4077854 125.370252,81.7591286 125.653944,82.1903801 C125.927503,82.6013374 126.109876,83.0807877 126.201063,83.6287308 C126.265907,83.9290848 126.304813,84.3723099 126.317782,84.9584061 L126.322645,85.4247665 L120.357527,85.4247665 L120.393089,85.9013248 C120.46766,86.5105564 120.650843,87.01507 120.94264,87.4148655 C121.307386,87.9146099 121.872236,88.1644821 122.63719,88.1644821 C123.351484,88.1644821 123.9214,87.9285622 124.346937,87.4567223 C124.509046,87.2740746 124.639634,87.0722601 124.738701,86.8512789 L124.863661,86.5054321 L126.208662,86.5054321 L126.14576,86.8161869 C126.085532,87.0309671 125.988716,87.2609679 125.855314,87.5061893 C125.65521,87.8740215 125.431043,88.1746292 125.182813,88.4080124 C124.767408,88.8138962 124.253217,89.0878677 123.640241,89.2299271 C123.310957,89.3111038 122.938612,89.3516922 122.523206,89.3516922 C121.510023,89.3516922 120.65135,88.9825916 119.947187,88.2443905 C119.243025,87.5061893 118.890943,86.4724541 118.890943,85.1431847 C118.890943,83.8342094 119.245558,82.7713013 119.954786,81.9544601 C120.664015,81.137619 121.591078,80.7291985 122.735975,80.7291985 Z M139.172346,80.7291985 C139.74986,80.7291985 140.309644,80.8649158 140.851698,81.1363506 C141.393751,81.4077854 141.806623,81.7591286 142.090315,82.1903801 C142.363874,82.6013374 142.546247,83.0807877 142.637434,83.6287308 C142.702277,83.9290848 142.741184,84.3723099 142.754152,84.9584061 L142.759016,85.4247665 L136.793897,85.4247665 L136.82946,85.9013248 C136.90403,86.5105564 137.087214,87.01507 137.379011,87.4148655 C137.743757,87.9146099 138.308607,88.1644821 139.07356,88.1644821 C139.787855,88.1644821 140.357771,87.9285622 140.783308,87.4567223 C140.945417,87.2740746 141.076005,87.0722601 141.175072,86.8512789 L141.300031,86.5054321 L142.645033,86.5054321 L142.582131,86.8161869 C142.521903,87.0309671 142.425087,87.2609679 142.291685,87.5061893 C142.091581,87.8740215 141.867414,88.1746292 141.619184,88.4080124 C141.203779,88.8138962 140.689588,89.0878677 140.076612,89.2299271 C139.747328,89.3111038 139.374983,89.3516922 138.959577,89.3516922 C137.946394,89.3516922 137.087721,88.9825916 136.383558,88.2443905 C135.679395,87.5061893 135.327314,86.4724541 135.327314,85.1431847 C135.327314,83.8342094 135.681928,82.7713013 136.391157,81.9544601 C137.100385,81.137619 138.027448,80.7291985 139.172346,80.7291985 Z M105.425733,80.7291985 C106.003248,80.7291985 106.563032,80.8649158 107.105085,81.1363506 C107.647138,81.4077854 108.060011,81.7591286 108.343702,82.1903801 C108.617262,82.6013374 108.799635,83.0807877 108.890821,83.6287308 C108.955665,83.9290848 108.994571,84.3723099 109.00754,84.9584061 L109.012403,85.4247665 L103.047285,85.4247665 L103.082848,85.9013248 C103.157418,86.5105564 103.340601,87.01507 103.632398,87.4148655 C103.997144,87.9146099 104.561994,88.1644821 105.326948,88.1644821 C106.041242,88.1644821 106.611158,87.9285622 107.036695,87.4567223 C107.198805,87.2740746 107.329393,87.0722601 107.42846,86.8512789 L107.553419,86.5054321 L108.89842,86.5054321 L108.835518,86.8161869 C108.77529,87.0309671 108.678475,87.2609679 108.545072,87.5061893 C108.344969,87.8740215 108.120802,88.1746292 107.872572,88.4080124 C107.457166,88.8138962 106.942976,89.0878677 106.33,89.2299271 C106.000715,89.3111038 105.62837,89.3516922 105.212965,89.3516922 C104.199781,89.3516922 103.341108,88.9825916 102.636945,88.2443905 C101.932783,87.5061893 101.580702,86.4724541 101.580702,85.1431847 C101.580702,83.8342094 101.935316,82.7713013 102.644544,81.9544601 C103.353773,81.137619 104.280836,80.7291985 105.425733,80.7291985 Z M114.65077,80.7291985 C115.805799,80.7291985 116.585951,81.1325455 116.991224,81.9392395 C117.169544,82.2923584 117.276537,82.7672424 117.312201,83.3638916 L117.325575,83.8342094 L117.325575,89.0625 L115.93498,89.0625 L115.93498,83.9255333 L115.921207,83.5707021 C115.893661,83.2339454 115.824796,82.9514122 115.714613,82.7231026 C115.471449,82.2157478 115.030714,81.9620705 114.392408,81.9620705 C114.068189,81.9620705 113.802229,81.9950485 113.594526,82.0610046 C113.219648,82.1726227 112.890363,82.3958588 112.606672,82.7307129 C112.378706,82.9996109 112.230528,83.2773876 112.162138,83.564043 C112.110845,83.7790346 112.078788,84.0632325 112.065964,84.4166368 L112.059553,84.7931099 L112.059553,89.0625 L110.691755,89.0625 L110.691755,80.9118462 L111.991163,80.9118462 L111.991163,82.068615 L112.284195,81.7361391 C112.581501,81.4288723 112.89163,81.1972332 113.214582,81.0412216 C113.645185,80.8332062 114.123914,80.7291985 114.65077,80.7291985 Z M128.670698,80.9118462 L130.843977,87.5480461 L133.116041,80.9118462 L134.61302,80.9118462 L131.543073,89.0625 L130.084089,89.0625 L127.082533,80.9118462 L128.670698,80.9118462 Z M105.342146,81.9240189 C104.713972,81.9240189 104.187116,82.1510601 103.761579,82.6051426 C103.42115,82.9684086 103.208786,83.410416 103.124489,83.9311649 L103.085279,84.3364906 L107.606611,84.3364906 C107.550886,83.7428856 107.421705,83.2685089 107.219068,82.9133606 C106.84419,82.2537994 106.218549,81.9240189 105.342146,81.9240189 Z M122.652387,81.9240189 C122.024214,81.9240189 121.497358,82.1510601 121.071821,82.6051426 C120.731391,82.9684086 120.519028,83.410416 120.434731,83.9311649 L120.395521,84.3364906 L124.916853,84.3364906 C124.861128,83.7428856 124.731947,83.2685089 124.52931,82.9133606 C124.154432,82.2537994 123.528791,81.9240189 122.652387,81.9240189 Z M139.088758,81.9240189 C138.460584,81.9240189 137.933729,82.1510601 137.508192,82.6051426 C137.167762,82.9684086 136.955399,83.410416 136.871102,83.9311649 L136.831892,84.3364906 L141.353224,84.3364906 C141.297498,83.7428856 141.168318,83.2685089 140.965681,82.9133606 C140.590803,82.2537994 139.965162,81.9240189 139.088758,81.9240189 Z M122.211652,77.6317978 L123.594648,79.8311806 L122.553602,79.8311806 L120.517103,77.6317978 L122.211652,77.6317978 Z M201.817487,62.3610001 C202.455793,62.3610001 203.013044,62.51828 203.48924,62.83284 C203.661482,62.9512227 203.835974,63.1056841 204.012719,63.296224 L204.279524,63.6090927 L204.279524,62.5816994 L205.540937,62.5816994 L205.540937,69.9941521 L205.528272,70.4934737 C205.486056,71.295376 205.3383,71.9457766 205.085005,72.4446754 C204.517622,73.5507088 203.44618,74.1037254 201.87068,74.1037254 C200.994276,74.1037254 200.257185,73.9071255 199.659406,73.5139256 C199.147025,73.176897 198.828182,72.6767902 198.702878,72.0136051 L198.656355,71.6684227 L200.046949,71.6684227 L200.10869,71.926698 C200.182779,72.169277 200.293913,72.3647671 200.442091,72.5131683 C200.751112,72.8175812 201.23744,72.9697876 201.901075,72.9697876 C202.94972,72.9697876 203.636152,72.5994186 203.960371,71.8586807 C204.152876,71.4223557 204.241529,70.6435661 204.226331,69.5223122 C203.952772,69.938343 203.623487,70.2478294 203.238477,70.4507713 C202.853468,70.6537132 202.344343,70.7551842 201.711103,70.7551842 C200.829633,70.7551842 200.058347,70.4418926 199.397245,69.8153095 C198.736143,69.1887264 198.405592,68.1524544 198.405592,66.7064934 C198.405592,65.3417091 198.738676,64.2762642 199.404844,63.5101585 C200.071012,62.7440529 200.875227,62.3610001 201.817487,62.3610001 Z M219.05174,62.2925072 C220.277693,62.2925072 221.161695,62.652729 221.703748,63.3731728 C221.975282,63.7384682 222.134959,64.1264931 222.182782,64.5372475 L222.197675,64.849575 L220.905866,64.849575 L220.852674,64.5493902 C220.798638,64.3554679 220.707451,64.1739477 220.579115,64.0048294 C220.265028,63.6446075 219.720442,63.4644966 218.945356,63.4644966 C218.428632,63.4644966 218.03729,63.5634308 217.77133,63.7612991 C217.505369,63.9591675 217.372389,64.2204552 217.372389,64.5451622 C217.372389,64.9003105 217.547163,65.1844292 217.896711,65.3975182 C218.048689,65.4926472 218.254808,65.5792146 218.51507,65.6572204 L218.793379,65.7323723 L220.162021,66.0716658 C220.89095,66.2682657 221.394727,66.4595807 221.673353,66.6456108 C222.205274,66.9956856 222.471235,67.5461655 222.471235,68.2970505 C222.471235,69.0225677 222.196409,69.6491508 221.646757,70.1767998 C221.097105,70.7044487 220.259962,70.9682732 219.135328,70.9682732 C217.924574,70.9682732 217.067167,70.6930332 216.563108,70.1425533 C216.143059,69.6838201 215.885718,69.134362 215.791083,68.4941789 L215.753828,68.0991821 L217.068433,68.0991821 L217.112602,68.4216695 C217.170543,68.7241797 217.269804,68.9667587 217.410383,69.1494064 C217.754865,69.5908051 218.352644,69.8115044 219.203718,69.8115044 C219.71031,69.8115044 220.15611,69.7011547 220.54112,69.4804554 C220.92613,69.2597561 221.118635,68.91856 221.118635,68.4568672 C221.118635,68.1067924 220.964124,67.8404312 220.655103,67.6577835 L220.51346,67.5886818 L220.51346,67.5886818 L220.091571,67.437693 L220.091571,67.437693 L219.484876,67.2696571 L218.003703,66.8897499 C217.506838,66.7452553 217.126692,66.5877724 216.863264,66.4173012 C216.275617,66.0469322 215.981794,65.5345039 215.981794,64.8800163 C215.981794,64.1088371 216.259153,63.4847908 216.813871,63.0078773 C217.368589,62.5309639 218.114546,62.2925072 219.05174,62.2925072 Z M155.502332,62.2696762 C156.550977,62.2696762 157.437513,62.619751 158.161939,63.3199005 C158.886366,64.02005 159.248579,65.0499802 159.248579,66.4096909 C159.248579,67.7237396 158.929426,68.8094788 158.29112,69.6669083 C157.652815,70.5243378 156.662428,70.9530525 155.319959,70.9530525 C154.200391,70.9530525 153.311323,70.5738049 152.652754,69.8153095 C151.994184,69.0568142 151.6649,68.0382996 151.6649,66.7597656 C151.6649,65.3899078 152.011915,64.2990952 152.705946,63.4873276 C153.399976,62.67556 154.332105,62.2696762 155.502332,62.2696762 Z M235.100568,62.2696762 C236.149214,62.2696762 237.035749,62.619751 237.760175,63.3199005 C238.484602,64.02005 238.846815,65.0499802 238.846815,66.4096909 C238.846815,67.7237396 238.527662,68.8094788 237.889356,69.6669083 C237.251051,70.5243378 236.260664,70.9530525 234.918195,70.9530525 C233.798628,70.9530525 232.909559,70.5738049 232.25099,69.8153095 C231.59242,69.0568142 231.263136,68.0382996 231.263136,66.7597656 C231.263136,65.3899078 231.610151,64.2990952 232.304182,63.4873276 C232.998213,62.67556 233.930341,62.2696762 235.100568,62.2696762 Z M183.944929,59.4386368 L183.944929,70.65625 L182.713911,70.65625 L182.713911,69.5223122 L182.463623,69.8728626 C182.202411,70.1972525 181.90843,70.443161 181.581678,70.6105881 C181.146009,70.8338242 180.647016,70.9454422 180.084699,70.9454422 C179.1779,70.9454422 178.392683,70.5636578 177.729048,69.8000889 C177.065412,69.03652 176.733595,68.0205421 176.733595,66.7521553 C176.733595,65.5649452 177.036283,64.5362835 177.64166,63.6661701 C178.247038,62.7960567 179.112043,62.3610001 180.236677,62.3610001 C180.859785,62.3610001 181.381574,62.4929123 181.802046,62.7567368 C181.984419,62.8708916 182.185314,63.0492585 182.404731,63.2918375 L182.630323,63.5558205 L182.630323,59.4386368 L183.944929,59.4386368 Z M210.989332,62.3229485 C211.566847,62.3229485 212.126631,62.4586658 212.668684,62.7301006 C213.210737,63.0015354 213.623609,63.3528786 213.907301,63.7841301 C214.18086,64.1950874 214.363233,64.6745377 214.45442,65.2224808 C214.519264,65.5228348 214.55817,65.9660599 214.571139,66.5521561 L214.576002,67.0185165 L208.610883,67.0185165 L208.646446,67.4950748 C208.721016,68.1043064 208.9042,68.60882 209.195997,69.0086155 C209.560743,69.5083599 210.125593,69.7582321 210.890547,69.7582321 C211.604841,69.7582321 212.174757,69.5223122 212.600294,69.0504723 C212.762403,68.8678246 212.892991,68.6660101 212.992058,68.4450289 L213.117017,68.0991821 L214.462019,68.0991821 L214.399117,68.4099369 C214.338889,68.6247171 214.242073,68.8547179 214.108671,69.0999393 C213.908567,69.4677715 213.6844,69.7683792 213.43617,70.0017624 C213.020765,70.4076462 212.506574,70.6816177 211.893598,70.8236771 C211.564314,70.9048538 211.191969,70.9454422 210.776563,70.9454422 C209.76338,70.9454422 208.904707,70.5763416 208.200544,69.8381405 C207.496381,69.0999393 207.1443,68.0662041 207.1443,66.7369347 C207.1443,65.4279594 207.498914,64.3650513 208.208143,63.5482101 C208.917371,62.731369 209.844434,62.3229485 210.989332,62.3229485 Z M189.355329,62.3229485 C189.932844,62.3229485 190.492628,62.4586658 191.034681,62.7301006 C191.576734,63.0015354 191.989607,63.3528786 192.273298,63.7841301 C192.546858,64.1950874 192.729231,64.6745377 192.820417,65.2224808 C192.885261,65.5228348 192.924167,65.9660599 192.937136,66.5521561 L192.941999,67.0185165 L186.976881,67.0185165 L187.012443,67.4950748 C187.087014,68.1043064 187.270197,68.60882 187.561994,69.0086155 C187.92674,69.5083599 188.49159,69.7582321 189.256544,69.7582321 C189.970838,69.7582321 190.540754,69.5223122 190.966291,69.0504723 C191.128401,68.8678246 191.258989,68.6660101 191.358055,68.4450289 L191.483015,68.0991821 L192.828016,68.0991821 L192.765114,68.4099369 C192.704886,68.6247171 192.608071,68.8547179 192.474668,69.0999393 C192.274564,69.4677715 192.050398,69.7683792 191.802168,70.0017624 C191.386762,70.4076462 190.872572,70.6816177 190.259596,70.8236771 C189.930311,70.9048538 189.557966,70.9454422 189.142561,70.9454422 C188.129377,70.9454422 187.270704,70.5763416 186.566541,69.8381405 C185.862379,69.0999393 185.510298,68.0662041 185.510298,66.7369347 C185.510298,65.4279594 185.864912,64.3650513 186.57414,63.5482101 C187.283369,62.731369 188.210432,62.3229485 189.355329,62.3229485 Z M139.172346,62.3229485 C139.74986,62.3229485 140.309644,62.4586658 140.851698,62.7301006 C141.393751,63.0015354 141.806623,63.3528786 142.090315,63.7841301 C142.363874,64.1950874 142.546247,64.6745377 142.637434,65.2224808 C142.702277,65.5228348 142.741184,65.9660599 142.754152,66.5521561 L142.759016,67.0185165 L136.793897,67.0185165 L136.82946,67.4950748 C136.90403,68.1043064 137.087214,68.60882 137.379011,69.0086155 C137.743757,69.5083599 138.308607,69.7582321 139.07356,69.7582321 C139.787855,69.7582321 140.357771,69.5223122 140.783308,69.0504723 C140.945417,68.8678246 141.076005,68.6660101 141.175072,68.4450289 L141.300031,68.0991821 L142.645033,68.0991821 L142.582131,68.4099369 C142.521903,68.6247171 142.425087,68.8547179 142.291685,69.0999393 C142.091581,69.4677715 141.867414,69.7683792 141.619184,70.0017624 C141.203779,70.4076462 140.689588,70.6816177 140.076612,70.8236771 C139.747328,70.9048538 139.374983,70.9454422 138.959577,70.9454422 C137.946394,70.9454422 137.087721,70.5763416 136.383558,69.8381405 C135.679395,69.0999393 135.327314,68.0662041 135.327314,66.7369347 C135.327314,65.4279594 135.681928,64.3650513 136.391157,63.5482101 C137.100385,62.731369 138.027448,62.3229485 139.172346,62.3229485 Z M167.721327,62.3229485 C168.298841,62.3229485 168.858625,62.4586658 169.400678,62.7301006 C169.942732,63.0015354 170.355604,63.3528786 170.639295,63.7841301 C170.912855,64.1950874 171.095228,64.6745377 171.186414,65.2224808 C171.251258,65.5228348 171.290164,65.9660599 171.303133,66.5521561 L171.307996,67.0185165 L165.342878,67.0185165 L165.378441,67.4950748 C165.453011,68.1043064 165.636195,68.60882 165.927992,69.0086155 C166.292738,69.5083599 166.857588,69.7582321 167.622541,69.7582321 C168.336836,69.7582321 168.906751,69.5223122 169.332288,69.0504723 C169.494398,68.8678246 169.624986,68.6660101 169.724053,68.4450289 L169.849012,68.0991821 L171.194013,68.0991821 L171.131112,68.4099369 C171.070883,68.6247171 170.974068,68.8547179 170.840666,69.0999393 C170.640562,69.4677715 170.416395,69.7683792 170.168165,70.0017624 C169.75276,70.4076462 169.238569,70.6816177 168.625593,70.8236771 C168.296308,70.9048538 167.923963,70.9454422 167.508558,70.9454422 C166.495374,70.9454422 165.636701,70.5763416 164.932539,69.8381405 C164.228376,69.0999393 163.876295,68.0662041 163.876295,66.7369347 C163.876295,65.4279594 164.230909,64.3650513 164.940138,63.5482101 C165.649366,62.731369 166.576429,62.3229485 167.721327,62.3229485 Z M126.193464,62.3229485 C126.770979,62.3229485 127.330763,62.4586658 127.872816,62.7301006 C128.414869,63.0015354 128.827741,63.3528786 129.111433,63.7841301 C129.384992,64.1950874 129.567365,64.6745377 129.658552,65.2224808 C129.723396,65.5228348 129.762302,65.9660599 129.775271,66.5521561 L129.780134,67.0185165 L123.815016,67.0185165 L123.850578,67.4950748 C123.925149,68.1043064 124.108332,68.60882 124.400129,69.0086155 C124.764875,69.5083599 125.329725,69.7582321 126.094679,69.7582321 C126.808973,69.7582321 127.378889,69.5223122 127.804426,69.0504723 C127.966535,68.8678246 128.097123,68.6660101 128.19619,68.4450289 L128.32115,68.0991821 L129.666151,68.0991821 L129.603249,68.4099369 C129.543021,68.6247171 129.446206,68.8547179 129.312803,69.0999393 C129.112699,69.4677715 128.888532,69.7683792 128.640302,70.0017624 C128.224897,70.4076462 127.710706,70.6816177 127.09773,70.8236771 C126.768446,70.9048538 126.396101,70.9454422 125.980695,70.9454422 C124.967512,70.9454422 124.108839,70.5763416 123.404676,69.8381405 C122.700514,69.0999393 122.348432,68.0662041 122.348432,66.7369347 C122.348432,65.4279594 122.703047,64.3650513 123.412275,63.5482101 C124.121504,62.731369 125.048567,62.3229485 126.193464,62.3229485 Z M104.361891,62.3077278 C105.319349,62.3077278 106.096967,62.4903755 106.694746,62.8556709 C107.202785,63.1687813 107.493093,63.6309918 107.56567,64.2423025 L107.583814,64.5603828 L107.583814,69.2559509 L107.593524,69.3887088 C107.60647,69.471013 107.632363,69.5409152 107.671201,69.5984154 C107.729459,69.6846657 107.852308,69.7277908 108.039747,69.7277908 L108.244917,69.7163754 L108.244917,69.7163754 L108.488081,69.6821289 L108.488081,70.6943016 L108.292199,70.7475739 C108.172868,70.7780151 108.076053,70.7983093 108.001753,70.8084564 L107.724816,70.8287506 C107.669654,70.8304418 107.609988,70.8312874 107.54582,70.8312874 C107.07469,70.8312874 106.73274,70.6638603 106.519972,70.3290062 C106.408521,70.151432 106.33,69.9002914 106.284406,69.5755844 C106.005781,69.9408798 105.605573,70.2579765 105.083784,70.5268745 C104.561994,70.7957726 103.987013,70.9302216 103.358839,70.9302216 C102.604017,70.9302216 101.987241,70.7006435 101.508512,70.2414875 C101.029783,69.7823315 100.790418,69.2077522 100.790418,68.5177498 C100.790418,67.7617912 101.025984,67.1757965 101.497114,66.7597656 C101.874018,66.4269409 102.344946,66.1963989 102.909897,66.0681396 L103.35124,65.9911232 L105.532118,65.7171516 L105.748211,65.6695871 C105.944832,65.6048994 106.083036,65.488842 106.162824,65.3214149 C106.223615,65.1996498 106.254011,65.0246124 106.254011,64.7963028 C106.254011,64.3295364 106.088102,63.9908772 105.756284,63.7803249 C105.424467,63.5697727 104.949537,63.4644966 104.331495,63.4644966 C103.617201,63.4644966 103.110609,63.6572914 102.81172,64.042881 C102.686338,64.2026978 102.593727,64.4210188 102.533886,64.6978443 L102.484968,64.9941711 L101.208357,64.9941711 L101.237589,64.5823596 C101.332808,63.7961668 101.648549,63.2345562 102.184812,62.8975277 C102.810453,62.5043278 103.536146,62.3077278 104.361891,62.3077278 Z M147.576704,62.2696762 C148.493635,62.2696762 149.239591,62.4929123 149.814573,62.9393845 C150.307414,63.3220749 150.63184,63.9414618 150.78785,64.7975453 L150.85182,65.2453117 L149.522016,65.2453117 L149.441753,64.884535 C149.342018,64.5396923 149.183866,64.2426519 148.967298,63.9934139 C148.678541,63.6610966 148.215009,63.4949379 147.576704,63.4949379 C146.705366,63.4949379 146.082258,63.9211159 145.70738,64.7734718 C145.464216,65.3264885 145.342634,66.0088806 145.342634,66.8206482 C145.342634,67.6374893 145.514875,68.324955 145.859358,68.8830452 C146.20384,69.4411354 146.745893,69.7201805 147.485517,69.7201805 C148.0529,69.7201805 148.5025,69.5464115 148.834318,69.1988735 C149.099772,68.9208431 149.299572,68.5608242 149.433717,68.1188168 L149.522016,67.7719383 L150.85182,67.7719383 L150.772729,68.2172974 C150.586634,69.072449 150.233054,69.714201 149.711988,70.1425533 C149.104078,70.6422977 148.32646,70.89217 147.379133,70.89217 C146.31529,70.89217 145.466749,70.5027752 144.833509,69.7239857 C144.200269,68.9451962 143.88365,67.9723434 143.88365,66.8054276 C143.88365,65.3746872 144.230665,64.2610435 144.924696,63.4644966 C145.618726,62.6679497 146.502729,62.2696762 147.576704,62.2696762 Z M111.193281,62.5055962 L111.193281,67.9165344 L111.205629,68.2142882 C111.230325,68.4977727 111.292066,68.7384491 111.390852,68.9363174 C111.634016,69.423378 112.087415,69.6669083 112.751051,69.6669083 C113.703443,69.6669083 114.351881,69.2407303 114.696363,68.3883743 C114.846314,68.0230789 114.936285,67.5490067 114.966275,66.9661575 L114.977522,66.508625 L114.977522,62.5055962 L116.345319,62.5055962 L116.345319,70.65625 L115.05351,70.65625 L115.068708,69.4538193 L114.877048,69.7472394 C114.739705,69.932142 114.583224,70.095623 114.407606,70.2376823 C113.885816,70.6638603 113.252577,70.8769493 112.507887,70.8769493 C111.347791,70.8769493 110.557508,70.4888229 110.137037,69.7125702 C109.954664,69.3797455 109.84524,68.9576263 109.808766,68.4462128 L109.795088,68.0459099 L109.795088,62.5055962 L111.193281,62.5055962 Z M120.137159,60.2301102 L120.137159,62.5055962 L121.436567,62.5055962 L121.436567,63.6243134 L120.137159,63.6243134 L120.137159,68.9439278 L120.155206,69.1394179 C120.191301,69.3173091 120.281538,69.4424038 120.425916,69.5147018 C120.496839,69.5519079 120.599283,69.5767119 120.733249,69.5891139 L121.060423,69.5974641 L121.060423,69.5974641 L121.294088,69.5879512 L121.294088,69.5879512 L121.436567,69.5755844 L121.436567,70.65625 L121.196253,70.71523 L120.946439,70.7551842 C120.776731,70.7754784 120.593092,70.7856255 120.395521,70.7856255 C119.757215,70.7856255 119.324079,70.6220036 119.096113,70.2947598 C118.925138,70.0493269 118.818279,69.748957 118.775535,69.3936502 L118.754163,69.020031 L118.754163,63.6243134 L117.652326,63.6243134 L117.652326,62.5055962 L118.754163,62.5055962 L118.754163,60.2301102 L120.137159,60.2301102 Z M225.693159,60.2301102 L225.693159,62.5055962 L226.992567,62.5055962 L226.992567,63.6243134 L225.693159,63.6243134 L225.693159,68.9439278 L225.711206,69.1394179 C225.747301,69.3173091 225.837537,69.4424038 225.981916,69.5147018 C226.052839,69.5519079 226.155283,69.5767119 226.289249,69.5891139 L226.616422,69.5974641 L226.616422,69.5974641 L226.850088,69.5879512 L226.850088,69.5879512 L226.992567,69.5755844 L226.992567,70.65625 L226.752252,70.71523 L226.502439,70.7551842 C226.332731,70.7754784 226.149091,70.7856255 225.951521,70.7856255 C225.313215,70.7856255 224.880079,70.6220036 224.652113,70.2947598 C224.481138,70.0493269 224.374279,69.748957 224.331535,69.3936502 L224.310163,69.020031 L224.310163,63.6243134 L223.208326,63.6243134 L223.208326,62.5055962 L224.310163,62.5055962 L224.310163,60.2301102 L225.693159,60.2301102 Z M229.750959,62.5436478 L229.750959,70.65625 L228.360365,70.65625 L228.360365,62.5436478 L229.750959,62.5436478 Z M244.431989,62.3229485 C245.587019,62.3229485 246.36717,62.7262955 246.772443,63.5329895 C246.950764,63.8861084 247.057756,64.3609924 247.09342,64.9576416 L247.106794,65.4279594 L247.106794,70.65625 L245.7162,70.65625 L245.7162,65.5192833 L245.702427,65.1644521 C245.674881,64.8276954 245.606016,64.5451622 245.495832,64.3168526 C245.252668,63.8094978 244.811933,63.5558205 244.173628,63.5558205 C243.849409,63.5558205 243.583448,63.5887985 243.375746,63.6547546 C243.000868,63.7663727 242.671583,63.9896088 242.387891,64.3244629 C242.159925,64.5933609 242.011747,64.8711376 241.943357,65.157793 C241.892065,65.3727846 241.860007,65.6569825 241.847184,66.0103868 L241.840772,66.3868599 L241.840772,70.65625 L240.472975,70.65625 L240.472975,62.5055962 L241.772382,62.5055962 L241.772382,63.662365 L242.065414,63.3298891 C242.36272,63.0226223 242.672849,62.7909832 242.995802,62.6349716 C243.426405,62.4269562 243.905134,62.3229485 244.431989,62.3229485 Z M162.280531,59.4766884 L162.280531,70.65625 L160.912733,70.65625 L160.912733,59.4766884 L162.280531,59.4766884 Z M91.6793649,59.4766884 L91.6793649,64.0961533 L97.4849069,64.0961533 L97.4849069,59.4766884 L99.0122811,59.4766884 L99.0122811,70.65625 L97.4849069,70.65625 L97.4849069,65.4279594 L91.6793649,65.4279594 L91.6793649,70.65625 L90.1519906,70.65625 L90.1519906,59.4766884 L91.6793649,59.4766884 Z M235.062574,63.4644966 C234.226698,63.4644966 233.618787,63.7841301 233.238844,64.4233971 C232.8589,65.062664 232.668928,65.8338432 232.668928,66.7369347 C232.668928,67.6045113 232.8589,68.3274918 233.238844,68.9058762 C233.618787,69.4842606 234.221632,69.7734528 235.047376,69.7734528 C235.954176,69.7734528 236.576017,69.4297199 236.912901,68.7422543 C237.249784,68.0547886 237.418226,67.2899513 237.418226,66.4477425 C237.418226,65.6867104 237.296644,65.0677376 237.05348,64.5908241 C236.66847,63.8399391 236.004835,63.4644966 235.062574,63.4644966 Z M155.464338,63.4644966 C154.628462,63.4644966 154.020551,63.7841301 153.640608,64.4233971 C153.260664,65.062664 153.070692,65.8338432 153.070692,66.7369347 C153.070692,67.6045113 153.260664,68.3274918 153.640608,68.9058762 C154.020551,69.4842606 154.623396,69.7734528 155.44914,69.7734528 C156.35594,69.7734528 156.977781,69.4297199 157.314665,68.7422543 C157.651548,68.0547886 157.81999,67.2899513 157.81999,66.4477425 C157.81999,65.6867104 157.698408,65.0677376 157.455244,64.5908241 C157.070234,63.8399391 156.406599,63.4644966 155.464338,63.4644966 Z M106.216016,66.508625 L106.032799,66.6092504 C105.89996,66.6723879 105.74573,66.7276332 105.570112,66.7749863 L105.17877,66.8663101 L105.17877,66.8663101 L104.795027,66.9271927 L103.966749,67.0337372 L103.617676,67.0903389 C103.291874,67.1540754 103.035886,67.2392159 102.849714,67.3457603 C102.429243,67.5842171 102.219007,67.9647331 102.219007,68.4873085 C102.219007,68.8830452 102.363386,69.1950684 102.652143,69.423378 C102.940901,69.6516876 103.28285,69.7658424 103.677992,69.7658424 C104.159254,69.7658424 104.625318,69.6542244 105.076185,69.4309883 C105.727517,69.1135292 106.099707,68.6227412 106.192755,67.9586242 L106.216016,67.6121216 L106.216016,66.508625 Z M180.495039,63.5558205 C179.806074,63.5558205 179.247556,63.8196449 178.819486,64.3472939 C178.391416,64.8749428 178.177381,65.6511955 178.177381,66.6760521 C178.177381,67.5487022 178.362287,68.2792931 178.732099,68.8678246 C179.101911,69.456356 179.694624,69.7506218 180.510236,69.7506218 C181.143476,69.7506218 181.663999,69.4779186 182.071806,68.9325123 C182.479612,68.3871059 182.683515,67.6045113 182.683515,66.5847282 C182.683515,65.5547981 182.47328,64.7924976 182.052808,64.2978268 C181.632337,63.8031559 181.113081,63.5558205 180.495039,63.5558205 Z M202.06825,63.5710411 C201.105726,63.5710411 200.447157,64.0225868 200.092542,64.9256783 C199.905103,65.4076653 199.811384,66.0393219 199.811384,66.8206482 C199.811384,67.7389603 199.997556,68.4378414 200.369901,68.9172916 C200.742246,69.3967419 201.242506,69.636467 201.87068,69.636467 C202.853468,69.636467 203.544965,69.1925316 203.945173,68.3046608 C204.168073,67.8023796 204.279524,67.2163849 204.279524,66.5466766 C204.279524,65.5370407 204.071821,64.7886925 203.656416,64.3016319 C203.24101,63.8145714 202.711622,63.5710411 202.06825,63.5710411 Z M167.637739,63.5177689 C167.009565,63.5177689 166.48271,63.7448101 166.057173,64.1988926 C165.716743,64.5621586 165.50438,65.004166 165.420083,65.5249149 L165.380872,65.9302406 L169.902204,65.9302406 C169.846479,65.3366356 169.717298,64.8622589 169.514662,64.5071106 C169.139784,63.8475494 168.514143,63.5177689 167.637739,63.5177689 Z M210.905744,63.5177689 C210.27757,63.5177689 209.750715,63.7448101 209.325178,64.1988926 C208.984748,64.5621586 208.772385,65.004166 208.688088,65.5249149 L208.648878,65.9302406 L213.17021,65.9302406 C213.114485,65.3366356 212.985304,64.8622589 212.782667,64.5071106 C212.407789,63.8475494 211.782148,63.5177689 210.905744,63.5177689 Z M139.088758,63.5177689 C138.460584,63.5177689 137.933729,63.7448101 137.508192,64.1988926 C137.167762,64.5621586 136.955399,65.004166 136.871102,65.5249149 L136.831892,65.9302406 L141.353224,65.9302406 C141.297498,65.3366356 141.168318,64.8622589 140.965681,64.5071106 C140.590803,63.8475494 139.965162,63.5177689 139.088758,63.5177689 Z M126.109876,63.5177689 C125.481703,63.5177689 124.954847,63.7448101 124.52931,64.1988926 C124.18888,64.5621586 123.976517,65.004166 123.89222,65.5249149 L123.85301,65.9302406 L128.374342,65.9302406 C128.318617,65.3366356 128.189436,64.8622589 127.986799,64.5071106 C127.611921,63.8475494 126.98628,63.5177689 126.109876,63.5177689 Z M189.271742,63.5177689 C188.643568,63.5177689 188.116712,63.7448101 187.691175,64.1988926 C187.350746,64.5621586 187.138382,65.004166 187.054085,65.5249149 L187.014875,65.9302406 L191.536207,65.9302406 C191.480482,65.3366356 191.351301,64.8622589 191.148664,64.5071106 C190.773786,63.8475494 190.148145,63.5177689 189.271742,63.5177689 Z M140.752912,59.2255478 L138.724012,61.4249306 L137.675367,61.4249306 L139.065962,59.2255478 L140.752912,59.2255478 Z M229.750959,59.4766884 L229.750959,61.0291939 L228.360365,61.0291939 L228.360365,59.4766884 L229.750959,59.4766884 Z M210.368836,5.55482812 C211.667193,5.55482812 213.2768,6.17232812 214.16905,8.09310937 L214.237229,8.09310937 L214.237229,6.03576562 L218.7548,6.03576562 L218.7548,23.5573281 C218.7548,28.4260781 216.5968,30.7921719 211.086193,30.7921719 C207.081443,30.7921719 204.822657,29.0079531 204.822657,25.8521719 L209.340229,25.8521719 C209.340229,26.4696719 209.615907,26.9506094 210.06055,27.2593594 C210.502229,27.5681094 211.053586,27.7729531 211.634586,27.7729531 C213.549514,27.7729531 214.237229,26.3331094 214.237229,24.4479531 L214.237229,22.0135781 L214.16905,22.0135781 C213.208621,23.3851406 211.735371,24.2757656 210.229514,24.2757656 C206.464871,24.2757656 204.58255,21.7048281 204.58255,14.9509219 L204.593072,14.047805 L204.629675,13.1347173 C204.847016,9.32533478 205.940295,5.55482812 210.368836,5.55482812 Z M154.662496,5.55601562 C159.795822,5.55601562 161.218763,8.76502963 161.390616,13.7742612 L161.409211,14.9164844 L161.409211,15.9763281 L152.059854,15.9763281 L152.059854,17.4517969 C152.059854,19.6130469 152.643818,21.7416406 154.389782,21.7416406 C155.963818,21.7416406 156.615961,20.5363281 156.888675,18.2771094 L161.133532,18.2771094 C160.961604,22.5639844 158.907354,24.9627344 154.457961,24.9627344 C149.270461,24.9627344 147.856368,21.9299204 147.475615,18.4626304 L147.402671,17.6234691 L147.36099,16.7756061 L147.342154,15.9270234 L147.337746,15.0857031 C147.337746,10.1486719 148.295211,5.55601562 154.662496,5.55601562 Z M94.5426321,-5.27355937e-14 L94.5426321,7.920625 L94.6108107,7.920625 C95.5000964,6.34421875 97.1097036,5.55453125 99.095775,5.55453125 C102.039311,5.55453125 103.785275,7.1665625 103.785275,10.8003125 L103.785275,24.4832812 L99.0602036,24.4832812 L99.0602036,11.7621875 C99.0602036,9.9096875 98.4465964,9.18828125 97.041525,9.18828125 C95.4319179,9.18828125 94.5426321,10.1828125 94.5426321,12.2401562 L94.5426321,24.4832812 L89.8175607,24.4832812 L89.8175607,-5.27355937e-14 L94.5426321,-5.27355937e-14 Z M211.770943,9.18857812 C210.228483,9.18857812 209.620435,10.106556 209.408161,12.5934455 L209.348797,13.5373762 L209.317038,14.6179568 L209.307621,15.8415469 L209.325256,16.7227127 C209.418439,18.880797 209.917392,20.6420156 211.667193,20.6420156 C213.653264,20.6420156 214.237229,18.4807656 214.237229,15.3606094 C214.237229,10.8688906 213.653264,9.18857812 211.770943,9.18857812 Z M154.490568,8.77710937 C152.733735,8.77710937 152.138901,10.4813566 152.067398,12.1012966 L152.059854,13.1678906 L156.888675,13.1678906 L156.867625,12.6846201 L156.804034,11.7965112 C156.614391,9.84824259 156.099303,8.77710937 154.490568,8.77710937 Z" id="Shape" fill="#000000"></path>
                </g>
            </g>
        </g>
    </g>
</svg>